<?xml version="1.0" encoding="iso-8859-1"?>
<!-- Uploaded to: SVG Repo, www.svgrepo.com, Generator: SVG Repo Mixer Tools -->
<svg fill="#000000" version="1.1" id="Capa_1" xmlns="http://www.w3.org/2000/svg" xmlns:xlink="http://www.w3.org/1999/xlink" 
	 viewBox="0 0 512 512" xml:space="preserve">
<g>
	<g>
		<rect x="214.435" y="160.774" width="16.626" height="15.587"/>
	</g>
</g>
<g>
	<g>
		<rect x="247.687" y="102.583" width="16.626" height="15.587"/>
	</g>
</g>
<g>
	<g>
		<path d="M331.033,496.413l4.077-17.665h51.82v-15.587h-48.223l4.077-17.665h10.894v-15.587h-7.297l5.357-23.21
			c15.982-69.258,15.466-142.351-1.492-211.377S299.873,61.287,253.615,7.32L247.341,0l-5.843,7.669
			c-41.403,54.342-70.892,118.366-85.275,185.153c-14.385,66.786-13.868,137.274,1.494,203.843l7.672,33.244h-8.106v15.587h11.704
			l4.077,17.665h-39.68v15.587h43.278l4.077,17.665H76.231V512h359.539v-15.587H331.033z M166.209,225.199h7.7v-15.587h-5.13
			c0.508-2.777,1.041-5.548,1.601-8.313h20.155v-15.587h-16.699c0.752-3.125,1.542-6.242,2.362-9.352h29.923v-15.587h-25.514
			c14.701-48.569,37.642-94.847,67.452-135.816c14.117,17.242,26.905,35.576,38.253,54.765h-21.999v15.587h30.796
			c1.299,2.413,2.576,4.837,3.829,7.274h-26.312v15.587h33.96c1.445,3.1,2.846,6.22,4.22,9.352h-21.554v15.587h28.035
			c4.77,12.113,9.006,24.434,12.682,36.918L161.412,287.29C161.596,266.5,163.195,245.728,166.209,225.199z M161.618,305.634
			l172.66-109.874c0.277,1.094,0.561,2.185,0.83,3.282c0.537,2.186,1.056,4.379,1.559,6.574L162.246,319.367
			C161.965,314.794,161.76,310.216,161.618,305.634z M165.167,350.037c-0.559-4.323-1.053-8.656-1.489-12.995l176.404-115.046
			c0.643,3.401,1.247,6.809,1.809,10.225L165.167,350.037z M264.313,496.413h-17.665v-41.94c0-4.651,4.044-8.58,8.833-8.58
			c4.787,0,8.833,3.929,8.833,8.58V496.413z M279.9,496.412v-41.94c0-10.629-6.973-19.671-16.626-22.897V381.07h-15.587v50.506
			c-9.654,3.227-16.626,12.268-16.626,22.897v41.94h-34.328l-23.827-103.254c-1.992-8.632-3.717-17.335-5.193-26.086l176.654-117.77
			c6.382,51.228,3.786,103.605-7.818,153.89l-21.512,93.219H279.9z"/>
	</g>
</g>
</svg>